<svg width="1928" height="948" viewBox="0 0 1928 948" fill="none" xmlns="http://www.w3.org/2000/svg">
<g filter="url(#filter0_f)">
<g clip-path="url(#clip0)">
<rect width="1920" height="940" transform="matrix(-1 0 0 1 1924 4)" fill="url(#paint0_linear)"/>
<g filter="url(#filter1_d)">
<path d="M1924 125.001C1924 125.001 1536.5 298.751 950 -4.49911C363.5 -307.749 4 -150.999 4 -150.999V343.001H1924V125.001Z" fill="#D537A0" fill-opacity="0.79"/>
<path d="M1924 125.001C1924 125.001 1536.5 298.751 950 -4.49911C363.5 -307.749 4 -150.999 4 -150.999V343.001H1924V125.001Z" fill="#F838B7" fill-opacity="0.67"/>
<path d="M1924 125.001C1924 125.001 1536.5 298.751 950 -4.49911C363.5 -307.749 4 -150.999 4 -150.999V343.001H1924V125.001Z" fill="#FE92DA" fill-opacity="0.71"/>
<path d="M4.5 -150.669V342.501H1923.5V125.765C1923.37 125.819 1923.23 125.881 1923.07 125.95C1922.31 126.271 1921.19 126.741 1919.69 127.342C1916.7 128.543 1912.25 130.264 1906.37 132.346C1894.62 136.509 1877.17 142.116 1854.41 147.896C1808.89 159.454 1742.09 171.702 1656.95 174.469C1486.68 180.003 1243.1 147.611 949.77 -4.05498C656.592 -155.643 420.172 -192.248 257.066 -190.968C175.512 -190.328 112.283 -180.215 69.4491 -170.266C48.0319 -165.291 31.7134 -160.357 20.7523 -156.668C15.2717 -154.824 11.1305 -153.291 8.36096 -152.219C6.9762 -151.683 5.93433 -151.263 5.2395 -150.977C4.91919 -150.845 4.67249 -150.742 4.5 -150.669Z" stroke="#FE92DA" stroke-opacity="0.71"/>
</g>
<g filter="url(#filter2_d)">
<path d="M1924 275.001C1924 275.001 1536.5 448.751 950 145.501C363.5 -157.749 4 -0.999146 4 -0.999146V493.001H1924V275.001Z" fill="#D537A0" fill-opacity="0.79"/>
<path d="M1924 275.001C1924 275.001 1536.5 448.751 950 145.501C363.5 -157.749 4 -0.999146 4 -0.999146V493.001H1924V275.001Z" fill="#F838B7" fill-opacity="0.67"/>
<path d="M1924 275.001C1924 275.001 1536.5 448.751 950 145.501C363.5 -157.749 4 -0.999146 4 -0.999146V493.001H1924V275.001Z" fill="#FF59C7" fill-opacity="0.62"/>
<path d="M4.5 -0.669067V492.501H1923.5V275.765C1923.37 275.819 1923.23 275.881 1923.07 275.95C1922.31 276.271 1921.19 276.741 1919.69 277.342C1916.7 278.543 1912.25 280.264 1906.37 282.346C1894.62 286.509 1877.17 292.116 1854.41 297.896C1808.89 309.454 1742.09 321.702 1656.95 324.469C1486.68 330.003 1243.1 297.611 949.77 145.945C656.592 -5.6431 420.172 -42.2485 257.066 -40.9679C175.512 -40.3276 112.283 -30.2154 69.4491 -20.266C48.0319 -15.2913 31.7134 -10.3573 20.7523 -6.66833C15.2717 -4.82384 11.1305 -3.2906 8.36096 -2.21917C6.9762 -1.68345 5.93433 -1.26318 5.2395 -0.977184C4.91919 -0.845322 4.67249 -0.742001 4.5 -0.669067Z" stroke="#FB46BE" stroke-opacity="0.71"/>
</g>
<g filter="url(#filter3_d)">
<path d="M1924 416.001C1924 416.001 1536.5 589.751 950 286.501C363.5 -16.7491 4 140.001 4 140.001V634.001H1924V416.001Z" fill="#D537A0" fill-opacity="0.79"/>
<path d="M1924 416.001C1924 416.001 1536.5 589.751 950 286.501C363.5 -16.7491 4 140.001 4 140.001V634.001H1924V416.001Z" fill="#F838B7" fill-opacity="0.67"/>
<path d="M1924 416.001C1924 416.001 1536.5 589.751 950 286.501C363.5 -16.7491 4 140.001 4 140.001V634.001H1924V416.001Z" fill="#F838B7" fill-opacity="0.67"/>
<path d="M4.5 140.331V633.501H1923.5V416.765C1923.37 416.819 1923.23 416.881 1923.07 416.95C1922.31 417.271 1921.19 417.741 1919.69 418.342C1916.7 419.543 1912.25 421.264 1906.37 423.346C1894.62 427.509 1877.17 433.116 1854.41 438.896C1808.89 450.454 1742.09 462.702 1656.95 465.469C1486.68 471.003 1243.1 438.611 949.77 286.945C656.592 135.357 420.172 98.7515 257.066 100.032C175.512 100.672 112.283 110.785 69.4491 120.734C48.0319 125.709 31.7134 130.643 20.7523 134.332C15.2717 136.176 11.1305 137.709 8.36096 138.781C6.9762 139.317 5.93433 139.737 5.2395 140.023C4.91919 140.155 4.67249 140.258 4.5 140.331Z" stroke="#FB46BE" stroke-opacity="0.71"/>
</g>
<g filter="url(#filter4_d)">
<path d="M1924 566.001C1924 566.001 1536.5 739.751 950 436.501C363.5 133.251 4 290.001 4 290.001V784.001H1924V566.001Z" fill="#D537A0" fill-opacity="0.79"/>
<path d="M1924 566.001C1924 566.001 1536.5 739.751 950 436.501C363.5 133.251 4 290.001 4 290.001V784.001H1924V566.001Z" fill="#E233A7" fill-opacity="0.71"/>
<path d="M4.5 290.331V783.501H1923.5V566.765C1923.37 566.819 1923.23 566.881 1923.07 566.95C1922.31 567.271 1921.19 567.741 1919.69 568.342C1916.7 569.543 1912.25 571.264 1906.37 573.346C1894.62 577.509 1877.17 583.116 1854.41 588.896C1808.89 600.454 1742.09 612.702 1656.95 615.469C1486.68 621.003 1243.1 588.611 949.77 436.945C656.592 285.357 420.172 248.752 257.066 250.032C175.512 250.672 112.283 260.785 69.4491 270.734C48.0319 275.709 31.7134 280.643 20.7523 284.332C15.2717 286.176 11.1305 287.709 8.36096 288.781C6.9762 289.317 5.93433 289.737 5.2395 290.023C4.91919 290.155 4.67249 290.258 4.5 290.331Z" stroke="#FB46BE" stroke-opacity="0.71"/>
</g>
<g filter="url(#filter5_d)">
<path d="M1924 716.001C1924 716.001 1536.5 889.751 950 586.501C363.5 283.251 4 440.001 4 440.001V934.001H1924V716.001Z" fill="#D537A0" fill-opacity="0.79"/>
<path d="M1924 716.001C1924 716.001 1536.5 889.751 950 586.501C363.5 283.251 4 440.001 4 440.001V934.001H1924V716.001Z" fill="#C7198B"/>
<path d="M4.5 440.331V933.501H1923.5V716.765C1923.37 716.819 1923.23 716.881 1923.07 716.95C1922.31 717.271 1921.19 717.741 1919.69 718.342C1916.7 719.543 1912.25 721.264 1906.37 723.346C1894.62 727.509 1877.17 733.116 1854.41 738.896C1808.89 750.454 1742.09 762.702 1656.95 765.469C1486.68 771.003 1243.1 738.611 949.77 586.945C656.592 435.357 420.172 398.752 257.066 400.032C175.512 400.672 112.283 410.785 69.4491 420.734C48.0319 425.709 31.7134 430.643 20.7523 434.332C15.2717 436.176 11.1305 437.709 8.36096 438.781C6.9762 439.317 5.93433 439.737 5.2395 440.023C4.91919 440.155 4.67249 440.258 4.5 440.331Z" stroke="#D537A0" stroke-opacity="0.79"/>
</g>
<g filter="url(#filter6_d)">
<path d="M1924 866C1924 866 1536.5 1039.75 950 736.5C363.5 433.25 4 590 4 590V1084H1924V866Z" fill="#BC0C80"/>
<path d="M4.5 590.33V1083.5H1923.5V866.764C1923.37 866.819 1923.23 866.88 1923.07 866.949C1922.31 867.27 1921.19 867.741 1919.69 868.341C1916.7 869.542 1912.25 871.263 1906.37 873.345C1894.62 877.508 1877.17 883.115 1854.41 888.895C1808.89 900.454 1742.09 912.702 1656.95 915.469C1486.68 921.002 1243.1 888.61 949.77 736.944C656.592 585.356 420.172 548.751 257.066 550.031C175.512 550.672 112.283 560.784 69.4491 570.733C48.0319 575.708 31.7134 580.642 20.7523 584.331C15.2717 586.175 11.1305 587.709 8.36096 588.78C6.9762 589.316 5.93433 589.736 5.2395 590.022C4.91919 590.154 4.67249 590.257 4.5 590.33Z" stroke="#D3379F" stroke-opacity="0.79"/>
</g>
<g filter="url(#filter7_d)">
<path d="M1924 1016C1924 1016 1536.5 1189.75 950 886.501C363.5 583.251 4 740.001 4 740.001V1234H1924V1016Z" fill="#A91878"/>
<path d="M4.5 740.331V1233.5H1923.5V1016.76C1923.37 1016.82 1923.23 1016.88 1923.07 1016.95C1922.31 1017.27 1921.19 1017.74 1919.69 1018.34C1916.7 1019.54 1912.25 1021.26 1906.37 1023.35C1894.62 1027.51 1877.17 1033.12 1854.41 1038.9C1808.89 1050.45 1742.09 1062.7 1656.95 1065.47C1486.68 1071 1243.1 1038.61 949.77 886.945C656.592 735.357 420.172 698.752 257.066 700.032C175.512 700.672 112.283 710.785 69.4491 720.734C48.0319 725.709 31.7134 730.643 20.7523 734.332C15.2717 736.176 11.1305 737.709 8.36096 738.781C6.9762 739.317 5.93433 739.737 5.2395 740.023C4.91919 740.155 4.67249 740.258 4.5 740.331Z" stroke="#9D1E73"/>
</g>
<g filter="url(#filter8_d)">
<path d="M1924 1166C1924 1166 1536.5 1339.75 950 1036.5C363.5 733.251 4 890.001 4 890.001V1384H1924V1166Z" fill="#980D69"/>
<path d="M4.5 890.331V1383.5H1923.5V1166.76C1923.37 1166.82 1923.23 1166.88 1923.07 1166.95C1922.31 1167.27 1921.19 1167.74 1919.69 1168.34C1916.7 1169.54 1912.25 1171.26 1906.37 1173.35C1894.62 1177.51 1877.17 1183.12 1854.41 1188.9C1808.89 1200.45 1742.09 1212.7 1656.95 1215.47C1486.68 1221 1243.1 1188.61 949.77 1036.95C656.592 885.357 420.172 848.752 257.066 850.032C175.512 850.672 112.283 860.785 69.4491 870.734C48.0319 875.709 31.7134 880.643 20.7523 884.332C15.2717 886.176 11.1305 887.709 8.36096 888.781C6.9762 889.317 5.93433 889.737 5.2395 890.023C4.91919 890.155 4.67249 890.258 4.5 890.331Z" stroke="#9D1E73"/>
</g>
</g>
<rect x="-0.5" y="0.5" width="1919" height="939" transform="matrix(-1 0 0 1 1923 4)" stroke="white"/>
</g>
<defs>
<filter id="filter0_f" x="0" y="0" width="1928" height="948" filterUnits="userSpaceOnUse" color-interpolation-filters="sRGB">
<feFlood flood-opacity="0" result="BackgroundImageFix"/>
<feBlend mode="normal" in="SourceGraphic" in2="BackgroundImageFix" result="shape"/>
<feGaussianBlur stdDeviation="2" result="effect1_foregroundBlur"/>
</filter>
<filter id="filter1_d" x="0" y="-191.5" width="1928" height="542.501" filterUnits="userSpaceOnUse" color-interpolation-filters="sRGB">
<feFlood flood-opacity="0" result="BackgroundImageFix"/>
<feColorMatrix in="SourceAlpha" type="matrix" values="0 0 0 0 0 0 0 0 0 0 0 0 0 0 0 0 0 0 127 0"/>
<feOffset dy="4"/>
<feGaussianBlur stdDeviation="2"/>
<feColorMatrix type="matrix" values="0 0 0 0 0 0 0 0 0 0 0 0 0 0 0 0 0 0 0.25 0"/>
<feBlend mode="normal" in2="BackgroundImageFix" result="effect1_dropShadow"/>
<feBlend mode="normal" in="SourceGraphic" in2="effect1_dropShadow" result="shape"/>
</filter>
<filter id="filter2_d" x="0" y="-41.5" width="1928" height="542.501" filterUnits="userSpaceOnUse" color-interpolation-filters="sRGB">
<feFlood flood-opacity="0" result="BackgroundImageFix"/>
<feColorMatrix in="SourceAlpha" type="matrix" values="0 0 0 0 0 0 0 0 0 0 0 0 0 0 0 0 0 0 127 0"/>
<feOffset dy="4"/>
<feGaussianBlur stdDeviation="2"/>
<feColorMatrix type="matrix" values="0 0 0 0 0 0 0 0 0 0 0 0 0 0 0 0 0 0 0.25 0"/>
<feBlend mode="normal" in2="BackgroundImageFix" result="effect1_dropShadow"/>
<feBlend mode="normal" in="SourceGraphic" in2="effect1_dropShadow" result="shape"/>
</filter>
<filter id="filter3_d" x="0" y="99.5" width="1928" height="542.501" filterUnits="userSpaceOnUse" color-interpolation-filters="sRGB">
<feFlood flood-opacity="0" result="BackgroundImageFix"/>
<feColorMatrix in="SourceAlpha" type="matrix" values="0 0 0 0 0 0 0 0 0 0 0 0 0 0 0 0 0 0 127 0"/>
<feOffset dy="4"/>
<feGaussianBlur stdDeviation="2"/>
<feColorMatrix type="matrix" values="0 0 0 0 0 0 0 0 0 0 0 0 0 0 0 0 0 0 0.25 0"/>
<feBlend mode="normal" in2="BackgroundImageFix" result="effect1_dropShadow"/>
<feBlend mode="normal" in="SourceGraphic" in2="effect1_dropShadow" result="shape"/>
</filter>
<filter id="filter4_d" x="0" y="249.5" width="1928" height="542.501" filterUnits="userSpaceOnUse" color-interpolation-filters="sRGB">
<feFlood flood-opacity="0" result="BackgroundImageFix"/>
<feColorMatrix in="SourceAlpha" type="matrix" values="0 0 0 0 0 0 0 0 0 0 0 0 0 0 0 0 0 0 127 0"/>
<feOffset dy="4"/>
<feGaussianBlur stdDeviation="2"/>
<feColorMatrix type="matrix" values="0 0 0 0 0 0 0 0 0 0 0 0 0 0 0 0 0 0 0.25 0"/>
<feBlend mode="normal" in2="BackgroundImageFix" result="effect1_dropShadow"/>
<feBlend mode="normal" in="SourceGraphic" in2="effect1_dropShadow" result="shape"/>
</filter>
<filter id="filter5_d" x="0" y="399.5" width="1928" height="542.501" filterUnits="userSpaceOnUse" color-interpolation-filters="sRGB">
<feFlood flood-opacity="0" result="BackgroundImageFix"/>
<feColorMatrix in="SourceAlpha" type="matrix" values="0 0 0 0 0 0 0 0 0 0 0 0 0 0 0 0 0 0 127 0"/>
<feOffset dy="4"/>
<feGaussianBlur stdDeviation="2"/>
<feColorMatrix type="matrix" values="0 0 0 0 0 0 0 0 0 0 0 0 0 0 0 0 0 0 0.25 0"/>
<feBlend mode="normal" in2="BackgroundImageFix" result="effect1_dropShadow"/>
<feBlend mode="normal" in="SourceGraphic" in2="effect1_dropShadow" result="shape"/>
</filter>
<filter id="filter6_d" x="0" y="549.499" width="1928" height="542.501" filterUnits="userSpaceOnUse" color-interpolation-filters="sRGB">
<feFlood flood-opacity="0" result="BackgroundImageFix"/>
<feColorMatrix in="SourceAlpha" type="matrix" values="0 0 0 0 0 0 0 0 0 0 0 0 0 0 0 0 0 0 127 0"/>
<feOffset dy="4"/>
<feGaussianBlur stdDeviation="2"/>
<feColorMatrix type="matrix" values="0 0 0 0 0 0 0 0 0 0 0 0 0 0 0 0 0 0 0.25 0"/>
<feBlend mode="normal" in2="BackgroundImageFix" result="effect1_dropShadow"/>
<feBlend mode="normal" in="SourceGraphic" in2="effect1_dropShadow" result="shape"/>
</filter>
<filter id="filter7_d" x="0" y="699.5" width="1928" height="542.501" filterUnits="userSpaceOnUse" color-interpolation-filters="sRGB">
<feFlood flood-opacity="0" result="BackgroundImageFix"/>
<feColorMatrix in="SourceAlpha" type="matrix" values="0 0 0 0 0 0 0 0 0 0 0 0 0 0 0 0 0 0 127 0"/>
<feOffset dy="4"/>
<feGaussianBlur stdDeviation="2"/>
<feColorMatrix type="matrix" values="0 0 0 0 0 0 0 0 0 0 0 0 0 0 0 0 0 0 0.25 0"/>
<feBlend mode="normal" in2="BackgroundImageFix" result="effect1_dropShadow"/>
<feBlend mode="normal" in="SourceGraphic" in2="effect1_dropShadow" result="shape"/>
</filter>
<filter id="filter8_d" x="0" y="849.5" width="1928" height="542.501" filterUnits="userSpaceOnUse" color-interpolation-filters="sRGB">
<feFlood flood-opacity="0" result="BackgroundImageFix"/>
<feColorMatrix in="SourceAlpha" type="matrix" values="0 0 0 0 0 0 0 0 0 0 0 0 0 0 0 0 0 0 127 0"/>
<feOffset dy="4"/>
<feGaussianBlur stdDeviation="2"/>
<feColorMatrix type="matrix" values="0 0 0 0 0 0 0 0 0 0 0 0 0 0 0 0 0 0 0.25 0"/>
<feBlend mode="normal" in2="BackgroundImageFix" result="effect1_dropShadow"/>
<feBlend mode="normal" in="SourceGraphic" in2="effect1_dropShadow" result="shape"/>
</filter>
<linearGradient id="paint0_linear" x1="960" y1="0" x2="960" y2="940" gradientUnits="userSpaceOnUse">
<stop stop-color="#FD8FD8"/>
<stop offset="1" stop-color="#FD8FD8" stop-opacity="0"/>
</linearGradient>
<clipPath id="clip0">
<rect width="1920" height="940" transform="matrix(-1 0 0 1 1924 4)" fill="white"/>
</clipPath>
</defs>
</svg>
